<mxfile host="app.diagrams.net" modified="2023-10-03T15:09:52.087Z" agent="Mozilla/5.0 (Windows NT 10.0; Win64; x64) AppleWebKit/537.36 (KHTML, like Gecko) Chrome/117.0.0.0 Safari/537.36" etag="fQFSFY3tonHvVnrnH-NC" version="21.7.5" type="device">
  <diagram id="C5RBs43oDa-KdzZeNtuy" name="Page-1">
    <mxGraphModel dx="926" dy="1630" grid="1" gridSize="10" guides="1" tooltips="1" connect="1" arrows="1" fold="1" page="1" pageScale="1" pageWidth="827" pageHeight="1169" math="0" shadow="0">
      <root>
        <mxCell id="WIyWlLk6GJQsqaUBKTNV-0" />
        <mxCell id="WIyWlLk6GJQsqaUBKTNV-1" parent="WIyWlLk6GJQsqaUBKTNV-0" />
        <mxCell id="RIVNSsF6bao9re4FCDOq-2" style="edgeStyle=orthogonalEdgeStyle;rounded=0;orthogonalLoop=1;jettySize=auto;html=1;entryX=0;entryY=0.5;entryDx=0;entryDy=0;" parent="WIyWlLk6GJQsqaUBKTNV-1" source="RIVNSsF6bao9re4FCDOq-0" target="RIVNSsF6bao9re4FCDOq-1" edge="1">
          <mxGeometry relative="1" as="geometry" />
        </mxCell>
        <mxCell id="RIVNSsF6bao9re4FCDOq-0" value="Start" style="ellipse;whiteSpace=wrap;html=1;" parent="WIyWlLk6GJQsqaUBKTNV-1" vertex="1">
          <mxGeometry x="20" y="30" width="120" height="80" as="geometry" />
        </mxCell>
        <mxCell id="RIVNSsF6bao9re4FCDOq-4" value="" style="edgeStyle=orthogonalEdgeStyle;rounded=0;orthogonalLoop=1;jettySize=auto;html=1;entryX=0;entryY=0.5;entryDx=0;entryDy=0;exitX=1;exitY=0.5;exitDx=0;exitDy=0;" parent="WIyWlLk6GJQsqaUBKTNV-1" source="XaVcJ0XNxg8kzBx53fAf-2" target="YOab7UXLAuDOJbZmbY2K-0" edge="1">
          <mxGeometry relative="1" as="geometry">
            <mxPoint x="605" y="63.5" as="sourcePoint" />
          </mxGeometry>
        </mxCell>
        <mxCell id="XaVcJ0XNxg8kzBx53fAf-15" style="edgeStyle=orthogonalEdgeStyle;rounded=0;orthogonalLoop=1;jettySize=auto;html=1;entryX=0;entryY=0.5;entryDx=0;entryDy=0;" edge="1" parent="WIyWlLk6GJQsqaUBKTNV-1" source="RIVNSsF6bao9re4FCDOq-1" target="XaVcJ0XNxg8kzBx53fAf-13">
          <mxGeometry relative="1" as="geometry" />
        </mxCell>
        <mxCell id="RIVNSsF6bao9re4FCDOq-1" value="Countdown 3 seconds&lt;br&gt;Player Choose Object (rock, paper or scissor)" style="rounded=1;whiteSpace=wrap;html=1;" parent="WIyWlLk6GJQsqaUBKTNV-1" vertex="1">
          <mxGeometry x="170" y="40" width="130" height="60" as="geometry" />
        </mxCell>
        <mxCell id="XaVcJ0XNxg8kzBx53fAf-20" style="edgeStyle=orthogonalEdgeStyle;rounded=0;orthogonalLoop=1;jettySize=auto;html=1;entryX=1;entryY=0.5;entryDx=0;entryDy=0;" edge="1" parent="WIyWlLk6GJQsqaUBKTNV-1" source="RIVNSsF6bao9re4FCDOq-3" target="XaVcJ0XNxg8kzBx53fAf-17">
          <mxGeometry relative="1" as="geometry" />
        </mxCell>
        <mxCell id="XaVcJ0XNxg8kzBx53fAf-27" style="edgeStyle=orthogonalEdgeStyle;rounded=0;orthogonalLoop=1;jettySize=auto;html=1;entryX=1;entryY=0.5;entryDx=0;entryDy=0;" edge="1" parent="WIyWlLk6GJQsqaUBKTNV-1" source="RIVNSsF6bao9re4FCDOq-3" target="XaVcJ0XNxg8kzBx53fAf-16">
          <mxGeometry relative="1" as="geometry" />
        </mxCell>
        <mxCell id="XaVcJ0XNxg8kzBx53fAf-28" style="edgeStyle=orthogonalEdgeStyle;rounded=0;orthogonalLoop=1;jettySize=auto;html=1;entryX=1;entryY=0.5;entryDx=0;entryDy=0;" edge="1" parent="WIyWlLk6GJQsqaUBKTNV-1" source="RIVNSsF6bao9re4FCDOq-3" target="XaVcJ0XNxg8kzBx53fAf-18">
          <mxGeometry relative="1" as="geometry" />
        </mxCell>
        <mxCell id="RIVNSsF6bao9re4FCDOq-3" value="Count &quot;1, 2, 3 Go!&quot; Reveal Both Object" style="whiteSpace=wrap;html=1;rounded=1;" parent="WIyWlLk6GJQsqaUBKTNV-1" vertex="1">
          <mxGeometry x="691" y="240" width="120" height="60" as="geometry" />
        </mxCell>
        <mxCell id="XaVcJ0XNxg8kzBx53fAf-4" style="edgeStyle=orthogonalEdgeStyle;rounded=0;orthogonalLoop=1;jettySize=auto;html=1;entryX=1;entryY=0.5;entryDx=0;entryDy=0;" edge="1" parent="WIyWlLk6GJQsqaUBKTNV-1" source="RIVNSsF6bao9re4FCDOq-5" target="RIVNSsF6bao9re4FCDOq-11">
          <mxGeometry relative="1" as="geometry" />
        </mxCell>
        <mxCell id="XaVcJ0XNxg8kzBx53fAf-5" style="edgeStyle=orthogonalEdgeStyle;rounded=0;orthogonalLoop=1;jettySize=auto;html=1;entryX=1;entryY=0.5;entryDx=0;entryDy=0;" edge="1" parent="WIyWlLk6GJQsqaUBKTNV-1" source="RIVNSsF6bao9re4FCDOq-5" target="RIVNSsF6bao9re4FCDOq-7">
          <mxGeometry relative="1" as="geometry" />
        </mxCell>
        <mxCell id="RIVNSsF6bao9re4FCDOq-5" value="Are Objects the Same?" style="rhombus;whiteSpace=wrap;html=1;" parent="WIyWlLk6GJQsqaUBKTNV-1" vertex="1">
          <mxGeometry x="204" y="205" width="150" height="130" as="geometry" />
        </mxCell>
        <mxCell id="RIVNSsF6bao9re4FCDOq-9" style="edgeStyle=orthogonalEdgeStyle;rounded=0;orthogonalLoop=1;jettySize=auto;html=1;entryX=0.5;entryY=1;entryDx=0;entryDy=0;exitX=0.5;exitY=0;exitDx=0;exitDy=0;" parent="WIyWlLk6GJQsqaUBKTNV-1" source="RIVNSsF6bao9re4FCDOq-7" target="RIVNSsF6bao9re4FCDOq-1" edge="1">
          <mxGeometry relative="1" as="geometry">
            <Array as="points">
              <mxPoint x="110" y="150" />
              <mxPoint x="230" y="150" />
              <mxPoint x="230" y="100" />
            </Array>
          </mxGeometry>
        </mxCell>
        <mxCell id="RIVNSsF6bao9re4FCDOq-7" value="Play Again" style="rounded=1;whiteSpace=wrap;html=1;" parent="WIyWlLk6GJQsqaUBKTNV-1" vertex="1">
          <mxGeometry x="50" y="240" width="120" height="60" as="geometry" />
        </mxCell>
        <mxCell id="RIVNSsF6bao9re4FCDOq-10" value="Yes" style="text;html=1;align=center;verticalAlign=middle;resizable=0;points=[];autosize=1;strokeColor=none;fillColor=none;" parent="WIyWlLk6GJQsqaUBKTNV-1" vertex="1">
          <mxGeometry x="180" y="245" width="40" height="30" as="geometry" />
        </mxCell>
        <mxCell id="RIVNSsF6bao9re4FCDOq-15" style="edgeStyle=orthogonalEdgeStyle;rounded=0;orthogonalLoop=1;jettySize=auto;html=1;entryX=0.5;entryY=0;entryDx=0;entryDy=0;" parent="WIyWlLk6GJQsqaUBKTNV-1" source="RIVNSsF6bao9re4FCDOq-11" target="RIVNSsF6bao9re4FCDOq-14" edge="1">
          <mxGeometry relative="1" as="geometry">
            <mxPoint x="270" y="290" as="targetPoint" />
          </mxGeometry>
        </mxCell>
        <mxCell id="RIVNSsF6bao9re4FCDOq-11" value="Determine The Winner" style="rounded=1;whiteSpace=wrap;html=1;" parent="WIyWlLk6GJQsqaUBKTNV-1" vertex="1">
          <mxGeometry x="100" y="325" width="120" height="60" as="geometry" />
        </mxCell>
        <mxCell id="RIVNSsF6bao9re4FCDOq-13" value="No" style="text;html=1;align=center;verticalAlign=middle;resizable=0;points=[];autosize=1;strokeColor=none;fillColor=none;" parent="WIyWlLk6GJQsqaUBKTNV-1" vertex="1">
          <mxGeometry x="220" y="325" width="40" height="30" as="geometry" />
        </mxCell>
        <mxCell id="RIVNSsF6bao9re4FCDOq-17" value="" style="edgeStyle=orthogonalEdgeStyle;rounded=0;orthogonalLoop=1;jettySize=auto;html=1;" parent="WIyWlLk6GJQsqaUBKTNV-1" source="RIVNSsF6bao9re4FCDOq-14" target="RIVNSsF6bao9re4FCDOq-16" edge="1">
          <mxGeometry relative="1" as="geometry" />
        </mxCell>
        <mxCell id="RIVNSsF6bao9re4FCDOq-21" value="" style="edgeStyle=orthogonalEdgeStyle;rounded=0;orthogonalLoop=1;jettySize=auto;html=1;" parent="WIyWlLk6GJQsqaUBKTNV-1" source="RIVNSsF6bao9re4FCDOq-14" target="RIVNSsF6bao9re4FCDOq-20" edge="1">
          <mxGeometry relative="1" as="geometry" />
        </mxCell>
        <mxCell id="RIVNSsF6bao9re4FCDOq-14" value="Is it Rock vs Scissor?" style="rhombus;whiteSpace=wrap;html=1;" parent="WIyWlLk6GJQsqaUBKTNV-1" vertex="1">
          <mxGeometry x="100" y="430" width="120" height="120" as="geometry" />
        </mxCell>
        <mxCell id="RIVNSsF6bao9re4FCDOq-19" value="" style="edgeStyle=orthogonalEdgeStyle;rounded=0;orthogonalLoop=1;jettySize=auto;html=1;" parent="WIyWlLk6GJQsqaUBKTNV-1" source="RIVNSsF6bao9re4FCDOq-16" target="RIVNSsF6bao9re4FCDOq-18" edge="1">
          <mxGeometry relative="1" as="geometry" />
        </mxCell>
        <mxCell id="RIVNSsF6bao9re4FCDOq-24" style="edgeStyle=orthogonalEdgeStyle;rounded=0;orthogonalLoop=1;jettySize=auto;html=1;entryX=0;entryY=0.5;entryDx=0;entryDy=0;" parent="WIyWlLk6GJQsqaUBKTNV-1" source="RIVNSsF6bao9re4FCDOq-16" target="RIVNSsF6bao9re4FCDOq-23" edge="1">
          <mxGeometry relative="1" as="geometry" />
        </mxCell>
        <mxCell id="RIVNSsF6bao9re4FCDOq-16" value="Is it Rock vs Paper?" style="rhombus;whiteSpace=wrap;html=1;" parent="WIyWlLk6GJQsqaUBKTNV-1" vertex="1">
          <mxGeometry x="100" y="630" width="120" height="120" as="geometry" />
        </mxCell>
        <mxCell id="RIVNSsF6bao9re4FCDOq-25" style="edgeStyle=orthogonalEdgeStyle;rounded=0;orthogonalLoop=1;jettySize=auto;html=1;entryX=0;entryY=0.5;entryDx=0;entryDy=0;" parent="WIyWlLk6GJQsqaUBKTNV-1" source="RIVNSsF6bao9re4FCDOq-18" target="RIVNSsF6bao9re4FCDOq-22" edge="1">
          <mxGeometry relative="1" as="geometry" />
        </mxCell>
        <mxCell id="RIVNSsF6bao9re4FCDOq-18" value="Is it Paper vs Scissor?" style="rhombus;whiteSpace=wrap;html=1;" parent="WIyWlLk6GJQsqaUBKTNV-1" vertex="1">
          <mxGeometry x="100" y="830" width="120" height="120" as="geometry" />
        </mxCell>
        <mxCell id="RIVNSsF6bao9re4FCDOq-27" style="edgeStyle=orthogonalEdgeStyle;rounded=0;orthogonalLoop=1;jettySize=auto;html=1;entryX=0;entryY=0.5;entryDx=0;entryDy=0;" parent="WIyWlLk6GJQsqaUBKTNV-1" source="RIVNSsF6bao9re4FCDOq-20" target="RIVNSsF6bao9re4FCDOq-26" edge="1">
          <mxGeometry relative="1" as="geometry" />
        </mxCell>
        <mxCell id="RIVNSsF6bao9re4FCDOq-50" style="edgeStyle=orthogonalEdgeStyle;rounded=0;orthogonalLoop=1;jettySize=auto;html=1;entryX=0;entryY=0.5;entryDx=0;entryDy=0;" parent="WIyWlLk6GJQsqaUBKTNV-1" source="RIVNSsF6bao9re4FCDOq-20" target="RIVNSsF6bao9re4FCDOq-32" edge="1">
          <mxGeometry relative="1" as="geometry">
            <Array as="points">
              <mxPoint x="330" y="525" />
            </Array>
          </mxGeometry>
        </mxCell>
        <mxCell id="RIVNSsF6bao9re4FCDOq-20" value="Did Human choose Rock?" style="rhombus;whiteSpace=wrap;html=1;" parent="WIyWlLk6GJQsqaUBKTNV-1" vertex="1">
          <mxGeometry x="270" y="370" width="120" height="120" as="geometry" />
        </mxCell>
        <mxCell id="RIVNSsF6bao9re4FCDOq-31" style="edgeStyle=orthogonalEdgeStyle;rounded=0;orthogonalLoop=1;jettySize=auto;html=1;entryX=0;entryY=0.5;entryDx=0;entryDy=0;" parent="WIyWlLk6GJQsqaUBKTNV-1" source="RIVNSsF6bao9re4FCDOq-22" target="RIVNSsF6bao9re4FCDOq-28" edge="1">
          <mxGeometry relative="1" as="geometry" />
        </mxCell>
        <mxCell id="RIVNSsF6bao9re4FCDOq-37" style="edgeStyle=orthogonalEdgeStyle;rounded=0;orthogonalLoop=1;jettySize=auto;html=1;entryX=0;entryY=0.5;entryDx=0;entryDy=0;" parent="WIyWlLk6GJQsqaUBKTNV-1" source="RIVNSsF6bao9re4FCDOq-22" target="RIVNSsF6bao9re4FCDOq-33" edge="1">
          <mxGeometry relative="1" as="geometry">
            <Array as="points">
              <mxPoint x="330" y="925" />
            </Array>
          </mxGeometry>
        </mxCell>
        <mxCell id="RIVNSsF6bao9re4FCDOq-22" value="Did Human choose Scissor?" style="rhombus;whiteSpace=wrap;html=1;" parent="WIyWlLk6GJQsqaUBKTNV-1" vertex="1">
          <mxGeometry x="270" y="770" width="120" height="120" as="geometry" />
        </mxCell>
        <mxCell id="RIVNSsF6bao9re4FCDOq-30" style="edgeStyle=orthogonalEdgeStyle;rounded=0;orthogonalLoop=1;jettySize=auto;html=1;entryX=0;entryY=0.5;entryDx=0;entryDy=0;" parent="WIyWlLk6GJQsqaUBKTNV-1" source="RIVNSsF6bao9re4FCDOq-23" target="RIVNSsF6bao9re4FCDOq-29" edge="1">
          <mxGeometry relative="1" as="geometry" />
        </mxCell>
        <mxCell id="RIVNSsF6bao9re4FCDOq-35" style="edgeStyle=orthogonalEdgeStyle;rounded=0;orthogonalLoop=1;jettySize=auto;html=1;entryX=0;entryY=0.5;entryDx=0;entryDy=0;" parent="WIyWlLk6GJQsqaUBKTNV-1" source="RIVNSsF6bao9re4FCDOq-23" target="RIVNSsF6bao9re4FCDOq-34" edge="1">
          <mxGeometry relative="1" as="geometry">
            <Array as="points">
              <mxPoint x="330" y="725" />
            </Array>
          </mxGeometry>
        </mxCell>
        <mxCell id="RIVNSsF6bao9re4FCDOq-23" value="Did Human choose Paper?" style="rhombus;whiteSpace=wrap;html=1;" parent="WIyWlLk6GJQsqaUBKTNV-1" vertex="1">
          <mxGeometry x="270" y="570" width="120" height="120" as="geometry" />
        </mxCell>
        <mxCell id="RIVNSsF6bao9re4FCDOq-54" style="edgeStyle=orthogonalEdgeStyle;rounded=0;orthogonalLoop=1;jettySize=auto;html=1;entryX=1;entryY=0.5;entryDx=0;entryDy=0;" parent="WIyWlLk6GJQsqaUBKTNV-1" source="RIVNSsF6bao9re4FCDOq-26" target="RIVNSsF6bao9re4FCDOq-52" edge="1">
          <mxGeometry relative="1" as="geometry">
            <Array as="points">
              <mxPoint x="800" y="430" />
              <mxPoint x="800" y="1140" />
            </Array>
          </mxGeometry>
        </mxCell>
        <mxCell id="RIVNSsF6bao9re4FCDOq-26" value="Declare Human As Winner and Computer as Loser" style="rounded=1;whiteSpace=wrap;html=1;" parent="WIyWlLk6GJQsqaUBKTNV-1" vertex="1">
          <mxGeometry x="560" y="395" width="130" height="70" as="geometry" />
        </mxCell>
        <mxCell id="RIVNSsF6bao9re4FCDOq-58" style="edgeStyle=orthogonalEdgeStyle;rounded=0;orthogonalLoop=1;jettySize=auto;html=1;" parent="WIyWlLk6GJQsqaUBKTNV-1" source="RIVNSsF6bao9re4FCDOq-28" edge="1">
          <mxGeometry relative="1" as="geometry">
            <mxPoint x="800" y="830" as="targetPoint" />
          </mxGeometry>
        </mxCell>
        <mxCell id="RIVNSsF6bao9re4FCDOq-28" value="Declare Human As Winner and Computer as Loser" style="rounded=1;whiteSpace=wrap;html=1;" parent="WIyWlLk6GJQsqaUBKTNV-1" vertex="1">
          <mxGeometry x="560" y="795" width="130" height="70" as="geometry" />
        </mxCell>
        <mxCell id="RIVNSsF6bao9re4FCDOq-56" style="edgeStyle=orthogonalEdgeStyle;rounded=0;orthogonalLoop=1;jettySize=auto;html=1;" parent="WIyWlLk6GJQsqaUBKTNV-1" source="RIVNSsF6bao9re4FCDOq-29" edge="1">
          <mxGeometry relative="1" as="geometry">
            <mxPoint x="800" y="630" as="targetPoint" />
          </mxGeometry>
        </mxCell>
        <mxCell id="RIVNSsF6bao9re4FCDOq-29" value="Declare Human As Winner and Computer as Loser" style="rounded=1;whiteSpace=wrap;html=1;" parent="WIyWlLk6GJQsqaUBKTNV-1" vertex="1">
          <mxGeometry x="560" y="595" width="130" height="70" as="geometry" />
        </mxCell>
        <mxCell id="RIVNSsF6bao9re4FCDOq-55" style="edgeStyle=orthogonalEdgeStyle;rounded=0;orthogonalLoop=1;jettySize=auto;html=1;" parent="WIyWlLk6GJQsqaUBKTNV-1" source="RIVNSsF6bao9re4FCDOq-32" edge="1">
          <mxGeometry relative="1" as="geometry">
            <mxPoint x="800" y="525" as="targetPoint" />
          </mxGeometry>
        </mxCell>
        <mxCell id="RIVNSsF6bao9re4FCDOq-32" value="Declare Computer as Winner and Human as Loser" style="rounded=1;whiteSpace=wrap;html=1;" parent="WIyWlLk6GJQsqaUBKTNV-1" vertex="1">
          <mxGeometry x="400" y="490" width="130" height="70" as="geometry" />
        </mxCell>
        <mxCell id="RIVNSsF6bao9re4FCDOq-59" style="edgeStyle=orthogonalEdgeStyle;rounded=0;orthogonalLoop=1;jettySize=auto;html=1;" parent="WIyWlLk6GJQsqaUBKTNV-1" source="RIVNSsF6bao9re4FCDOq-33" edge="1">
          <mxGeometry relative="1" as="geometry">
            <mxPoint x="800" y="925" as="targetPoint" />
          </mxGeometry>
        </mxCell>
        <mxCell id="RIVNSsF6bao9re4FCDOq-33" value="Declare Computer as Winner and Human as Loser" style="rounded=1;whiteSpace=wrap;html=1;" parent="WIyWlLk6GJQsqaUBKTNV-1" vertex="1">
          <mxGeometry x="400" y="890" width="130" height="70" as="geometry" />
        </mxCell>
        <mxCell id="RIVNSsF6bao9re4FCDOq-57" style="edgeStyle=orthogonalEdgeStyle;rounded=0;orthogonalLoop=1;jettySize=auto;html=1;" parent="WIyWlLk6GJQsqaUBKTNV-1" source="RIVNSsF6bao9re4FCDOq-34" edge="1">
          <mxGeometry relative="1" as="geometry">
            <mxPoint x="800" y="725" as="targetPoint" />
          </mxGeometry>
        </mxCell>
        <mxCell id="RIVNSsF6bao9re4FCDOq-34" value="Declare Computer as Winner and Human as Loser" style="rounded=1;whiteSpace=wrap;html=1;" parent="WIyWlLk6GJQsqaUBKTNV-1" vertex="1">
          <mxGeometry x="400" y="690" width="130" height="70" as="geometry" />
        </mxCell>
        <mxCell id="RIVNSsF6bao9re4FCDOq-38" value="Yes" style="text;html=1;align=center;verticalAlign=middle;resizable=0;points=[];autosize=1;strokeColor=none;fillColor=none;" parent="WIyWlLk6GJQsqaUBKTNV-1" vertex="1">
          <mxGeometry x="210" y="488" width="40" height="30" as="geometry" />
        </mxCell>
        <mxCell id="RIVNSsF6bao9re4FCDOq-39" value="Yes" style="text;html=1;align=center;verticalAlign=middle;resizable=0;points=[];autosize=1;strokeColor=none;fillColor=none;" parent="WIyWlLk6GJQsqaUBKTNV-1" vertex="1">
          <mxGeometry x="210" y="690" width="40" height="30" as="geometry" />
        </mxCell>
        <mxCell id="RIVNSsF6bao9re4FCDOq-40" value="Yes" style="text;html=1;align=center;verticalAlign=middle;resizable=0;points=[];autosize=1;strokeColor=none;fillColor=none;" parent="WIyWlLk6GJQsqaUBKTNV-1" vertex="1">
          <mxGeometry x="210" y="890" width="40" height="30" as="geometry" />
        </mxCell>
        <mxCell id="RIVNSsF6bao9re4FCDOq-41" value="Yes" style="text;html=1;align=center;verticalAlign=middle;resizable=0;points=[];autosize=1;strokeColor=none;fillColor=none;" parent="WIyWlLk6GJQsqaUBKTNV-1" vertex="1">
          <mxGeometry x="440" y="400" width="40" height="30" as="geometry" />
        </mxCell>
        <mxCell id="RIVNSsF6bao9re4FCDOq-42" value="Yes" style="text;html=1;align=center;verticalAlign=middle;resizable=0;points=[];autosize=1;strokeColor=none;fillColor=none;" parent="WIyWlLk6GJQsqaUBKTNV-1" vertex="1">
          <mxGeometry x="440" y="600" width="40" height="30" as="geometry" />
        </mxCell>
        <mxCell id="RIVNSsF6bao9re4FCDOq-43" value="Yes" style="text;html=1;align=center;verticalAlign=middle;resizable=0;points=[];autosize=1;strokeColor=none;fillColor=none;" parent="WIyWlLk6GJQsqaUBKTNV-1" vertex="1">
          <mxGeometry x="440" y="800" width="40" height="30" as="geometry" />
        </mxCell>
        <mxCell id="RIVNSsF6bao9re4FCDOq-44" value="No" style="text;html=1;align=center;verticalAlign=middle;resizable=0;points=[];autosize=1;strokeColor=none;fillColor=none;" parent="WIyWlLk6GJQsqaUBKTNV-1" vertex="1">
          <mxGeometry x="150" y="570" width="40" height="30" as="geometry" />
        </mxCell>
        <mxCell id="RIVNSsF6bao9re4FCDOq-45" value="No" style="text;html=1;align=center;verticalAlign=middle;resizable=0;points=[];autosize=1;strokeColor=none;fillColor=none;" parent="WIyWlLk6GJQsqaUBKTNV-1" vertex="1">
          <mxGeometry x="150" y="770" width="40" height="30" as="geometry" />
        </mxCell>
        <mxCell id="RIVNSsF6bao9re4FCDOq-48" value="No" style="text;html=1;align=center;verticalAlign=middle;resizable=0;points=[];autosize=1;strokeColor=none;fillColor=none;" parent="WIyWlLk6GJQsqaUBKTNV-1" vertex="1">
          <mxGeometry x="320" y="700" width="40" height="30" as="geometry" />
        </mxCell>
        <mxCell id="RIVNSsF6bao9re4FCDOq-49" value="No" style="text;html=1;align=center;verticalAlign=middle;resizable=0;points=[];autosize=1;strokeColor=none;fillColor=none;" parent="WIyWlLk6GJQsqaUBKTNV-1" vertex="1">
          <mxGeometry x="320" y="900" width="40" height="30" as="geometry" />
        </mxCell>
        <mxCell id="RIVNSsF6bao9re4FCDOq-51" value="No" style="text;html=1;align=center;verticalAlign=middle;resizable=0;points=[];autosize=1;strokeColor=none;fillColor=none;" parent="WIyWlLk6GJQsqaUBKTNV-1" vertex="1">
          <mxGeometry x="320" y="500" width="40" height="30" as="geometry" />
        </mxCell>
        <mxCell id="RIVNSsF6bao9re4FCDOq-52" value="Exit" style="ellipse;whiteSpace=wrap;html=1;" parent="WIyWlLk6GJQsqaUBKTNV-1" vertex="1">
          <mxGeometry x="354" y="1100" width="120" height="80" as="geometry" />
        </mxCell>
        <mxCell id="YOab7UXLAuDOJbZmbY2K-1" style="edgeStyle=orthogonalEdgeStyle;rounded=0;orthogonalLoop=1;jettySize=auto;html=1;entryX=0.5;entryY=0;entryDx=0;entryDy=0;exitX=0.5;exitY=1;exitDx=0;exitDy=0;" parent="WIyWlLk6GJQsqaUBKTNV-1" source="YOab7UXLAuDOJbZmbY2K-0" target="RIVNSsF6bao9re4FCDOq-3" edge="1">
          <mxGeometry relative="1" as="geometry">
            <Array as="points">
              <mxPoint x="750" y="170" />
            </Array>
          </mxGeometry>
        </mxCell>
        <mxCell id="YOab7UXLAuDOJbZmbY2K-0" value="Computer Generates Random Number Between 1 - 3 (rock-1 paper-2 scissors-3)" style="rounded=1;whiteSpace=wrap;html=1;" parent="WIyWlLk6GJQsqaUBKTNV-1" vertex="1">
          <mxGeometry x="691" y="93.5" width="120" height="60" as="geometry" />
        </mxCell>
        <mxCell id="XaVcJ0XNxg8kzBx53fAf-9" style="edgeStyle=orthogonalEdgeStyle;rounded=0;orthogonalLoop=1;jettySize=auto;html=1;entryX=0;entryY=0.5;entryDx=0;entryDy=0;exitX=1;exitY=0.5;exitDx=0;exitDy=0;" edge="1" parent="WIyWlLk6GJQsqaUBKTNV-1" source="XaVcJ0XNxg8kzBx53fAf-2" target="XaVcJ0XNxg8kzBx53fAf-7">
          <mxGeometry relative="1" as="geometry">
            <mxPoint x="605" y="63.5" as="sourcePoint" />
          </mxGeometry>
        </mxCell>
        <mxCell id="XaVcJ0XNxg8kzBx53fAf-2" value="Did Player choose &lt;br&gt;Object before Countdown &lt;br&gt;Ended?" style="rhombus;whiteSpace=wrap;html=1;" vertex="1" parent="WIyWlLk6GJQsqaUBKTNV-1">
          <mxGeometry x="480" y="-5" width="150" height="150" as="geometry" />
        </mxCell>
        <mxCell id="XaVcJ0XNxg8kzBx53fAf-8" style="edgeStyle=orthogonalEdgeStyle;rounded=0;orthogonalLoop=1;jettySize=auto;html=1;entryX=0.5;entryY=0;entryDx=0;entryDy=0;exitX=0.5;exitY=0;exitDx=0;exitDy=0;" edge="1" parent="WIyWlLk6GJQsqaUBKTNV-1" source="XaVcJ0XNxg8kzBx53fAf-7" target="RIVNSsF6bao9re4FCDOq-1">
          <mxGeometry relative="1" as="geometry">
            <Array as="points">
              <mxPoint x="756" y="-30" />
              <mxPoint x="235" y="-30" />
            </Array>
          </mxGeometry>
        </mxCell>
        <mxCell id="XaVcJ0XNxg8kzBx53fAf-7" value="Display Error No Input Detected from Human. Restart Game" style="rounded=1;whiteSpace=wrap;html=1;" vertex="1" parent="WIyWlLk6GJQsqaUBKTNV-1">
          <mxGeometry x="691" y="-13.5" width="130" height="60" as="geometry" />
        </mxCell>
        <mxCell id="XaVcJ0XNxg8kzBx53fAf-10" value="No" style="text;html=1;align=center;verticalAlign=middle;resizable=0;points=[];autosize=1;strokeColor=none;fillColor=none;" vertex="1" parent="WIyWlLk6GJQsqaUBKTNV-1">
          <mxGeometry x="651" y="16.5" width="40" height="30" as="geometry" />
        </mxCell>
        <mxCell id="XaVcJ0XNxg8kzBx53fAf-11" value="Yes" style="text;html=1;align=center;verticalAlign=middle;resizable=0;points=[];autosize=1;strokeColor=none;fillColor=none;" vertex="1" parent="WIyWlLk6GJQsqaUBKTNV-1">
          <mxGeometry x="650" y="100" width="40" height="30" as="geometry" />
        </mxCell>
        <mxCell id="XaVcJ0XNxg8kzBx53fAf-14" style="edgeStyle=orthogonalEdgeStyle;rounded=0;orthogonalLoop=1;jettySize=auto;html=1;entryX=0;entryY=0.5;entryDx=0;entryDy=0;" edge="1" parent="WIyWlLk6GJQsqaUBKTNV-1" source="XaVcJ0XNxg8kzBx53fAf-13" target="XaVcJ0XNxg8kzBx53fAf-2">
          <mxGeometry relative="1" as="geometry" />
        </mxCell>
        <mxCell id="XaVcJ0XNxg8kzBx53fAf-13" value="Display Animation of 2 Fists Moving Up and Down Synchronously" style="rounded=1;whiteSpace=wrap;html=1;" vertex="1" parent="WIyWlLk6GJQsqaUBKTNV-1">
          <mxGeometry x="320" y="40" width="120" height="60" as="geometry" />
        </mxCell>
        <mxCell id="XaVcJ0XNxg8kzBx53fAf-24" style="edgeStyle=orthogonalEdgeStyle;rounded=0;orthogonalLoop=1;jettySize=auto;html=1;entryX=1;entryY=0.5;entryDx=0;entryDy=0;" edge="1" parent="WIyWlLk6GJQsqaUBKTNV-1" source="XaVcJ0XNxg8kzBx53fAf-16" target="RIVNSsF6bao9re4FCDOq-5">
          <mxGeometry relative="1" as="geometry" />
        </mxCell>
        <mxCell id="XaVcJ0XNxg8kzBx53fAf-16" value="Display Fist for Rock if Chosen by Either Players" style="rounded=1;whiteSpace=wrap;html=1;" vertex="1" parent="WIyWlLk6GJQsqaUBKTNV-1">
          <mxGeometry x="440" y="153.5" width="120" height="60" as="geometry" />
        </mxCell>
        <mxCell id="XaVcJ0XNxg8kzBx53fAf-29" style="edgeStyle=orthogonalEdgeStyle;rounded=0;orthogonalLoop=1;jettySize=auto;html=1;entryX=1;entryY=0.5;entryDx=0;entryDy=0;" edge="1" parent="WIyWlLk6GJQsqaUBKTNV-1" source="XaVcJ0XNxg8kzBx53fAf-17" target="RIVNSsF6bao9re4FCDOq-5">
          <mxGeometry relative="1" as="geometry" />
        </mxCell>
        <mxCell id="XaVcJ0XNxg8kzBx53fAf-17" value="Display Index and Second Finger Spread Apart for Scissors if Chosen by Either Players" style="rounded=1;whiteSpace=wrap;html=1;" vertex="1" parent="WIyWlLk6GJQsqaUBKTNV-1">
          <mxGeometry x="422.5" y="240" width="155" height="60" as="geometry" />
        </mxCell>
        <mxCell id="XaVcJ0XNxg8kzBx53fAf-25" style="edgeStyle=orthogonalEdgeStyle;rounded=0;orthogonalLoop=1;jettySize=auto;html=1;entryX=1;entryY=0.5;entryDx=0;entryDy=0;" edge="1" parent="WIyWlLk6GJQsqaUBKTNV-1" source="XaVcJ0XNxg8kzBx53fAf-18" target="RIVNSsF6bao9re4FCDOq-5">
          <mxGeometry relative="1" as="geometry" />
        </mxCell>
        <mxCell id="XaVcJ0XNxg8kzBx53fAf-18" value="Display Flat Hand for Paper if Chosen by Either Players" style="rounded=1;whiteSpace=wrap;html=1;" vertex="1" parent="WIyWlLk6GJQsqaUBKTNV-1">
          <mxGeometry x="440" y="325" width="120" height="60" as="geometry" />
        </mxCell>
      </root>
    </mxGraphModel>
  </diagram>
</mxfile>
